<?xml version="1.0" encoding="utf-8"?>
<!-- Generator: Adobe Illustrator 25.2.1, SVG Export Plug-In . SVG Version: 6.00 Build 0)  -->
<svg version="1.1" id="Layer_1" xmlns="http://www.w3.org/2000/svg" xmlns:xlink="http://www.w3.org/1999/xlink" x="0px" y="0px"
	 viewBox="0 0 1715 1080" style="enable-background:new 0 0 1715 1080;" xml:space="preserve">
<style type="text/css">
	.st0{fill:url(#SVGID_1_);}
	.st1{fill:url(#SVGID_2_);}
	.st2{fill:#304396;}
</style>
<g>
	<linearGradient id="SVGID_1_" gradientUnits="userSpaceOnUse" x1="1028.3286" y1="51.8043" x2="1028.3286" y2="763.7183">
		<stop  offset="0.4114" style="stop-color:#FFB001"/>
		<stop  offset="1" style="stop-color:#FFC400"/>
	</linearGradient>
	<path class="st0" d="M1059.2,375.9c-84.9-5-171.9-2.3-258.3,9.6c-119.3,16.4-237.8,47.3-350.6,94.7c-1,0.4-2,0.9-3.1,1.3v264.5
		c46.7-46.2,94.3-85.8,143-119.5c56.8-39.3,115.2-70.7,175.6-95.1c90.1-36.4,189.6-55.9,293.4-62c59.9-3.5,121.3-2.6,183.1,2.2
		c123.2,9.5,248.2,34.2,367.2,68.8c-100.2-64.1-227.4-113.3-367.2-141.1C1183.1,387.5,1121.7,379.6,1059.2,375.9z"/>
	<linearGradient id="SVGID_2_" gradientUnits="userSpaceOnUse" x1="160.7126" y1="51.8037" x2="160.7126" y2="763.7164">
		<stop  offset="0.4114" style="stop-color:#FFB001"/>
		<stop  offset="1" style="stop-color:#FFC400"/>
	</linearGradient>
	<path class="st1" d="M57.3,746.8c0,0,90.7,0,206.8,0V578C190.3,625.2,120.8,681.2,57.3,746.8z"/>
	<path class="st2" d="M1242.3,216.2h189.1V54H869.7v162.2h189.5v159.7c62.6,3.7,123.9,11.7,183.1,23.5V216.2z"/>
	<path class="st2" d="M1059.2,746.8h183.1V471.7c-61.8-4.8-123.2-5.7-183.1-2.2V746.8z"/>
	<path class="st2" d="M590.2,626.6c28.6,60.2,56.7,120.2,56.7,120.2h217.5c0,0-59.1-134.4-98.6-215.3
		C705.3,555.9,647,587.2,590.2,626.6z"/>
	<path class="st2" d="M447.2,746.8v-0.7V481.6c1-0.4,2-0.9,3.1-1.3c112.8-47.5,231.3-78.4,350.6-94.7
		c26.3-34.3,39.7-76.3,39.7-125.3c0-42.8-10.8-81.5-32.1-115.1c-21.7-34.3-51.3-58.6-87.7-72.1C686.4,60.2,634.7,54,562.6,54H264.1
		V578v168.9c57.2,0,120.6,0,182.3,0H447.2z M447.2,212.8h73.6c65.2,0,84.4,1.2,90,1.9c14.4,2.5,25,7.7,32.2,16
		c7.1,8.2,10.6,19.4,10.6,34.3c0,13.5-2.8,24.5-8.4,32.7c-5.4,7.9-12.7,13.3-22.5,16.6c-5.7,1.9-27.5,6.4-107.2,6.4h-68.3V212.8z"/>
</g>
<g>
	<path class="st2" d="M100.2,913.5h-41v-33.2h119.8v33.2h-41v103.4h-37.9V913.5z"/>
	<path class="st2" d="M205.4,880.4H270c20.9,0,35.3,5.5,44.5,14.8c8,7.8,12.1,18.3,12.1,31.8v0.4c0,20.9-11.1,34.7-28.1,41.9
		l32.6,47.6h-43.7l-27.5-41.4h-0.4h-16.2v41.4h-37.9V880.4z M268.2,945.9c12.9,0,20.3-6.2,20.3-16.2v-0.4c0-10.7-7.8-16.2-20.5-16.2
		h-24.8v32.8H268.2z"/>
	<path class="st2" d="M400.3,879.4h36.5l58.1,137.5h-40.6l-10-24.4h-52.7l-9.8,24.4h-39.8L400.3,879.4z M433.5,963.1l-15.2-38.8
		l-15.4,38.8H433.5z"/>
	<path class="st2" d="M517.9,880.4h35.3l56.2,72.2v-72.2h37.5v136.6h-33.2L555.4,942v74.9h-37.5V880.4z"/>
	<path class="st2" d="M670.5,996.7l21.1-25.2c13.5,10.7,28.5,16.4,44.3,16.4c10.1,0,15.6-3.5,15.6-9.4v-0.4c0-5.7-4.5-8.8-23-13.1
		c-29.1-6.6-51.5-14.8-51.5-42.9v-0.4c0-25.4,20.1-43.7,52.9-43.7c23.2,0,41.4,6.2,56.2,18.1l-18.9,26.7
		c-12.5-8.8-26.1-13.5-38.2-13.5c-9.2,0-13.7,3.9-13.7,8.8v0.4c0,6.2,4.7,9,23.6,13.3c31.4,6.8,50.9,17,50.9,42.5v0.4
		c0,27.9-22,44.5-55.2,44.5C710.3,1019.3,687.3,1011.7,670.5,996.7z"/>
	<path class="st2" d="M817.8,880.4h58.5c34.5,0,56.8,17.8,56.8,48v0.4c0,32.2-24.8,49.2-58.7,49.2h-18.7v39h-37.9V880.4z
		 M873.6,948.3c13.5,0,21.7-7,21.7-17.8v-0.4c0-11.7-8.2-17.9-21.9-17.9h-17.8v36.1H873.6z"/>
	<path class="st2" d="M954.1,949.1v-0.4c0-39.2,31.6-71,73.8-71c42.1,0,73.4,31.4,73.4,70.6v0.4c0,39.2-31.6,71-73.8,71
		C985.4,1019.7,954.1,988.3,954.1,949.1z M1062.6,949.1v-0.4c0-19.7-14.2-36.9-35.1-36.9c-20.7,0-34.5,16.8-34.5,36.5v0.4
		c0,19.7,14.2,36.9,34.9,36.9C1048.8,985.5,1062.6,968.8,1062.6,949.1z"/>
	<path class="st2" d="M1130.7,880.4h64.6c20.9,0,35.3,5.5,44.5,14.8c8,7.8,12.1,18.3,12.1,31.8v0.4c0,20.9-11.1,34.7-28.1,41.9
		l32.6,47.6h-43.7l-27.5-41.4h-0.4h-16.2v41.4h-37.9V880.4z M1193.5,945.9c12.9,0,20.3-6.2,20.3-16.2v-0.4
		c0-10.7-7.8-16.2-20.5-16.2h-24.8v32.8H1193.5z"/>
	<path class="st2" d="M1314.1,913.5h-41v-33.2h119.8v33.2h-41v103.4h-37.9V913.5z"/>
	<path class="st2" d="M1419.2,880.4h109.8v32.2h-72.4v20.7h65.6v29.9h-65.6v21.7h73.4v32.2h-110.8V880.4z"/>
	<path class="st2" d="M1548.8,996.7l21.1-25.2c13.5,10.7,28.5,16.4,44.3,16.4c10.1,0,15.6-3.5,15.6-9.4v-0.4c0-5.7-4.5-8.8-23-13.1
		c-29.1-6.6-51.5-14.8-51.5-42.9v-0.4c0-25.4,20.1-43.7,52.9-43.7c23.2,0,41.4,6.2,56.2,18.1l-18.9,26.7
		c-12.5-8.8-26.1-13.5-38.2-13.5c-9.2,0-13.7,3.9-13.7,8.8v0.4c0,6.2,4.7,9,23.6,13.3c31.4,6.8,50.9,17,50.9,42.5v0.4
		c0,27.9-22,44.5-55.2,44.5C1588.6,1019.3,1565.6,1011.7,1548.8,996.7z"/>
</g>
</svg>
