<?xml version="1.0" encoding="utf-8"?>
<!-- Generator: Adobe Illustrator 25.2.1, SVG Export Plug-In . SVG Version: 6.00 Build 0)  -->
<svg version="1.1" id="Layer_1" xmlns="http://www.w3.org/2000/svg" xmlns:xlink="http://www.w3.org/1999/xlink" x="0px" y="0px"
	 viewBox="0 0 1920 1080" style="enable-background:new 0 0 1920 1080;" xml:space="preserve">
<style type="text/css">
	.st0{fill:url(#SVGID_1_);}
	.st1{fill:url(#SVGID_2_);}
	.st2{fill:#FFFFFF;}
</style>
<g>
	<linearGradient id="SVGID_1_" gradientUnits="userSpaceOnUse" x1="1043.6927" y1="292.1578" x2="1043.6927" y2="711.8009">
		<stop  offset="0.4114" style="stop-color:#FFB001"/>
		<stop  offset="1" style="stop-color:#FFC400"/>
	</linearGradient>
	<path class="st0" d="M1061.9,483.2c-50-3-101.3-1.3-152.3,5.7c-70.3,9.7-140.2,27.9-206.7,55.8c-0.6,0.3-1.2,0.5-1.8,0.8v155.9
		c27.6-27.2,55.6-50.6,84.3-70.4c33.5-23.2,67.9-41.7,103.5-56.1c53.1-21.5,111.8-32.9,173-36.5c35.3-2.1,71.5-1.5,107.9,1.3
		c72.6,5.6,146.3,20.2,216.5,40.6c-59.1-37.8-134-66.8-216.5-83.2C1134.9,490.1,1098.8,485.4,1061.9,483.2z"/>
	<linearGradient id="SVGID_2_" gradientUnits="userSpaceOnUse" x1="532.2698" y1="292.1574" x2="532.2698" y2="711.7998">
		<stop  offset="0.4114" style="stop-color:#FFB001"/>
		<stop  offset="1" style="stop-color:#FFC400"/>
	</linearGradient>
	<path class="st1" d="M471.3,701.8c0,0,53.5,0,121.9,0v-99.5C549.7,630.2,508.8,663.2,471.3,701.8z"/>
	<g>
		<path class="st2" d="M1169.8,389.1h111.4v-95.6H950.2v95.6h111.7v94.1c36.9,2.2,73.1,6.9,107.9,13.8V389.1z"/>
	</g>
	<g>
		<path class="st2" d="M1061.9,701.8h107.9V539.7c-36.4-2.8-72.6-3.4-107.9-1.3V701.8z"/>
	</g>
	<g>
		<path class="st2" d="M785.4,631c16.9,35.5,33.4,70.9,33.4,70.9h128.2c0,0-34.8-79.2-58.1-126.9C853.3,589.3,818.9,607.8,785.4,631
			z"/>
	</g>
	<g>
		<path class="st2" d="M701.1,701.8v-0.4V545.5c0.6-0.3,1.2-0.5,1.8-0.8c66.5-28,136.3-46.2,206.7-55.8c15.5-20.2,23.4-45,23.4-73.9
			c0-25.2-6.4-48-18.9-67.9c-12.8-20.2-30.2-34.5-51.7-42.5c-20.2-7.5-50.7-11.1-93.2-11.1H593.2v308.8v99.5c33.7,0,71.1,0,107.5,0
			H701.1z M701.1,387.1h43.4c38.4,0,49.8,0.7,53.1,1.1c8.5,1.5,14.7,4.5,19,9.4c4.2,4.8,6.2,11.5,6.2,20.2c0,8-1.7,14.5-4.9,19.3
			c-3.2,4.6-7.5,7.8-13.3,9.8c-3.3,1.1-16.2,3.8-63.2,3.8h-40.3V387.1z"/>
	</g>
</g>
<g>
	<g>
		<path class="st2" d="M496.6,800.1h-24.2v-19.6h70.6v19.6h-24.2v61h-22.3V800.1z"/>
	</g>
	<g>
		<path class="st2" d="M558.6,780.6h38.1c12.3,0,20.8,3.2,26.2,8.7c4.7,4.6,7.1,10.8,7.1,18.7v0.2c0,12.3-6.6,20.5-16.6,24.7
			l19.2,28.1h-25.8l-16.2-24.4h-0.2h-9.5v24.4h-22.3V780.6z M595.6,819.2c7.6,0,12-3.7,12-9.5v-0.2c0-6.3-4.6-9.5-12.1-9.5h-14.6
			v19.3H595.6z"/>
	</g>
	<g>
		<path class="st2" d="M673.5,780H695l34.3,81.1h-23.9l-5.9-14.4h-31.1l-5.8,14.4h-23.5L673.5,780z M693,829.3l-9-22.9l-9.1,22.9
			H693z"/>
	</g>
	<g>
		<path class="st2" d="M742.8,780.6h20.8l33.1,42.6v-42.6h22.1v80.5h-19.6l-34.4-44.2v44.2h-22.1V780.6z"/>
	</g>
	<g>
		<path class="st2" d="M832.8,849.1l12.4-14.8c7.9,6.3,16.8,9.7,26.1,9.7c6,0,9.2-2.1,9.2-5.5v-0.2c0-3.3-2.6-5.2-13.6-7.7
			c-17.1-3.9-30.4-8.7-30.4-25.3v-0.2c0-15,11.8-25.8,31.2-25.8c13.7,0,24.4,3.7,33.1,10.7l-11.2,15.8c-7.4-5.2-15.4-7.9-22.5-7.9
			c-5.4,0-8.1,2.3-8.1,5.2v0.2c0,3.7,2.8,5.3,13.9,7.8c18.5,4,30,10,30,25.1v0.2c0,16.4-13,26.2-32.5,26.2
			C856.2,862.4,842.6,858,832.8,849.1z"/>
	</g>
	<g>
		<path class="st2" d="M919.6,780.6h34.5c20.4,0,33.5,10.5,33.5,28.3v0.2c0,19-14.6,29-34.6,29h-11v23h-22.3V780.6z M952.5,820.6
			c7.9,0,12.8-4.1,12.8-10.5v-0.2c0-6.9-4.8-10.6-12.9-10.6h-10.5v21.3H952.5z"/>
	</g>
	<g>
		<path class="st2" d="M1000,821v-0.2c0-23.1,18.6-41.9,43.5-41.9c24.8,0,43.2,18.5,43.2,41.6v0.2c0,23.1-18.6,41.9-43.5,41.9
			S1000,844.2,1000,821z M1063.9,821v-0.2c0-11.6-8.4-21.7-20.7-21.7c-12.2,0-20.4,9.9-20.4,21.5v0.2c0,11.6,8.4,21.7,20.6,21.7
			C1055.7,842.6,1063.9,832.7,1063.9,821z"/>
	</g>
	<g>
		<path class="st2" d="M1104,780.6h38.1c12.3,0,20.8,3.2,26.2,8.7c4.7,4.6,7.1,10.8,7.1,18.7v0.2c0,12.3-6.6,20.5-16.6,24.7
			l19.2,28.1h-25.8l-16.2-24.4h-0.2h-9.5v24.4H1104V780.6z M1141.1,819.2c7.6,0,12-3.7,12-9.5v-0.2c0-6.3-4.6-9.5-12.1-9.5h-14.6
			v19.3H1141.1z"/>
	</g>
	<g>
		<path class="st2" d="M1212.1,800.1H1188v-19.6h70.6v19.6h-24.2v61h-22.3V800.1z"/>
	</g>
	<g>
		<path class="st2" d="M1274.1,780.6h64.7v19h-42.7v12.2h38.6v17.6h-38.6v12.8h43.2v19h-65.3V780.6z"/>
	</g>
	<g>
		<path class="st2" d="M1350.5,849.1l12.4-14.8c7.9,6.3,16.8,9.7,26.1,9.7c6,0,9.2-2.1,9.2-5.5v-0.2c0-3.3-2.6-5.2-13.6-7.7
			c-17.1-3.9-30.4-8.7-30.4-25.3v-0.2c0-15,11.8-25.8,31.2-25.8c13.7,0,24.4,3.7,33.1,10.7l-11.2,15.8c-7.4-5.2-15.4-7.9-22.5-7.9
			c-5.4,0-8.1,2.3-8.1,5.2v0.2c0,3.7,2.8,5.3,13.9,7.8c18.5,4,30,10,30,25.1v0.2c0,16.4-13,26.2-32.5,26.2
			C1373.9,862.4,1360.4,858,1350.5,849.1z"/>
	</g>
</g>
</svg>
